<?xml version="1.0" encoding="utf-8"?>
<!-- Generator: Adobe Illustrator 16.0.0, SVG Export Plug-In . SVG Version: 6.00 Build 0)  -->
<!DOCTYPE svg PUBLIC "-//W3C//DTD SVG 1.1//EN" "http://www.w3.org/Graphics/SVG/1.1/DTD/svg11.dtd">
<svg version="1.1" id="Layer_1" xmlns="http://www.w3.org/2000/svg" xmlns:xlink="http://www.w3.org/1999/xlink" x="0px" y="0px"
	 width="81px" height="70px" viewBox="0 0 81 70" enable-background="new 0 0 81 70" xml:space="preserve">
<path fill="#EB6326" d="M80.829,35.001L60.621,70V35L80.829,35.001z M20.207,0L0,35l30.311-17.5L20.207,0z M30.311,52.501L20.207,70
	h40.414L30.311,52.501z M20.207,0l10.104,17.5L60.621,0H20.207z M60.621,0v35h20.208L60.621,0z M30.311,17.5L60.621,35V0
	L30.311,17.5z M60.621,35L30.31,52.5L60.621,70V35z M60.621,35l-30.31-17.5v35.001L60.621,35z M30.311,17.5L0,35l30.311,17.5V17.5z
	 M20.207,70l10.104-17.499L0,35L20.207,70z"/>
<polygon fill="#EB6326" points="60.622,35 60.622,70 80.83,35.001 "/>
<polygon fill="#F29D31" points="30.311,17.5 0,35 20.208,0 "/>
<polygon fill="#EB6326" points="60.622,70 20.208,70 30.311,52.501 "/>
<polygon fill="#F9AF45" points="20.207,0 30.311,17.5 60.621,0 "/>
<polygon fill="#F17623" points="80.83,35 60.622,35 60.622,0 "/>
<polygon fill="#F9A72D" points="60.622,0 60.622,35 30.311,17.5 "/>
<polygon fill="#F17623" points="60.622,35 30.311,52.501 60.622,70 "/>
<polygon fill="#F58B24" points="30.311,52.501 30.311,17.501 60.622,35 "/>
<polygon fill="#F9A72D" points="30.311,17.5 0,35 30.311,52.5 "/>
<polygon fill="#F17623" points="20.207,70 30.311,52.501 0,35 "/>
</svg>
