<?xml version="1.0" encoding="utf-8"?>
<!-- Generator: Adobe Illustrator 16.0.0, SVG Export Plug-In . SVG Version: 6.00 Build 0)  -->
<!DOCTYPE svg PUBLIC "-//W3C//DTD SVG 1.1//EN" "http://www.w3.org/Graphics/SVG/1.1/DTD/svg11.dtd">
<svg version="1.1" id="Layer_1" xmlns="http://www.w3.org/2000/svg" xmlns:xlink="http://www.w3.org/1999/xlink" x="0px" y="0px"
	 width="241px" height="70px" viewBox="0 0 241 70" enable-background="new 0 0 241 70" xml:space="preserve">
<path fill="#EB6326" d="M80.829,35.001L60.621,70V35L80.829,35.001z M20.207,0L0,35l30.311-17.5L20.207,0z M30.311,52.501L20.207,70
	h40.414L30.311,52.501z M20.207,0l10.104,17.5L60.621,0H20.207z M60.621,0v35h20.208L60.621,0z M30.311,17.5L60.621,35V0
	L30.311,17.5z M60.621,35L30.31,52.5L60.621,70V35z M60.621,35l-30.31-17.5v35.001L60.621,35z M30.311,17.5L0,35l30.311,17.5V17.5z
	 M20.207,70l10.104-17.499L0,35L20.207,70z"/>
<polygon fill="#EB6326" points="60.622,35 60.622,70 80.83,35.001 "/>
<polygon fill="#F29D31" points="30.311,17.5 0,35 20.208,0 "/>
<polygon fill="#EB6326" points="60.622,70 20.208,70 30.311,52.501 "/>
<polygon fill="#F9AF45" points="20.207,0 30.311,17.5 60.621,0 "/>
<polygon fill="#F17623" points="80.83,35 60.622,35 60.622,0 "/>
<polygon fill="#F9A72D" points="60.622,0 60.622,35 30.311,17.5 "/>
<polygon fill="#F17623" points="60.622,35 30.311,52.501 60.622,70 "/>
<polygon fill="#F58B24" points="30.311,52.501 30.311,17.501 60.622,35 "/>
<polygon fill="#F9A72D" points="30.311,17.5 0,35 30.311,52.5 "/>
<polygon fill="#F17623" points="20.207,70 30.311,52.501 0,35 "/>
<path fill="#2E2F33" d="M93.73,9.941c0-0.751,0.614-1.365,1.33-1.365h8.835c2.729,0,4.879,0.785,6.244,2.115
	c0.989,1.024,1.535,2.286,1.535,3.821v0.068c0,3.104-1.911,4.708-3.787,5.526c2.832,0.853,5.117,2.491,5.117,5.766v0.068
	c0,4.093-3.446,6.516-8.665,6.516H95.06c-0.716,0-1.33-0.614-1.33-1.364V9.941z M103.453,19.22c3.241,0,5.493-1.467,5.493-4.264
	v-0.068c0-2.354-1.877-3.89-5.288-3.89h-7.267v8.222H103.453z M104.408,30.034c3.616,0,5.868-1.603,5.868-4.264v-0.068
	c0-2.592-2.184-4.093-6.345-4.093h-7.54v8.426L104.408,30.034L104.408,30.034z"/>
<path fill="#2E2F33" d="M118.358,31.092V9.94c0-0.75,0.614-1.364,1.331-1.364h14.838c0.685,0,1.229,0.546,1.229,1.228
	c0,0.683-0.545,1.229-1.229,1.229h-13.475v8.153h11.939c0.684,0,1.229,0.581,1.229,1.229c0,0.682-0.545,1.228-1.229,1.228h-11.939
	V30h13.646c0.682,0,1.229,0.546,1.229,1.229c0,0.682-0.547,1.228-1.229,1.228h-15.011C118.972,32.456,118.358,31.842,118.358,31.092
	"/>
<path fill="#2E2F33" d="M148.547,23.075l-8.871-12.417c-0.17-0.273-0.307-0.581-0.307-0.922c0-0.716,0.648-1.33,1.398-1.33
	c0.58,0,0.957,0.341,1.297,0.819l7.881,11.359l7.949-11.359c0.34-0.479,0.682-0.819,1.262-0.819c0.75,0,1.33,0.614,1.33,1.33
	c0,0.341-0.203,0.717-0.375,0.99l-8.836,12.281v8.256c0,0.75-0.613,1.365-1.363,1.365c-0.752,0-1.365-0.614-1.365-1.365V23.075
	L148.547,23.075z"/>
<path fill="#2E2F33" d="M162.498,20.584v-0.068c0-6.584,4.945-12.35,12.213-12.35c7.266,0,12.145,5.697,12.145,12.281v0.068
	c0,6.584-4.946,12.35-12.213,12.35C167.377,32.865,162.498,27.168,162.498,20.584 M184.059,20.584v-0.068
	c0-5.424-3.959-9.859-9.416-9.859c-5.459,0-9.348,4.367-9.348,9.791v0.068c0,5.424,3.957,9.859,9.416,9.859
	S184.059,26.008,184.059,20.584"/>
<path fill="#2E2F33" d="M192.551,9.804c0-0.716,0.613-1.33,1.33-1.33h0.375c0.613,0,0.988,0.307,1.363,0.784l14.5,18.49V9.736
	c0-0.717,0.58-1.33,1.33-1.33c0.717,0,1.297,0.613,1.297,1.33v21.56c0,0.717-0.512,1.263-1.229,1.263h-0.138
	c-0.58,0-0.989-0.342-1.397-0.819l-14.808-18.933v18.489c0,0.717-0.579,1.332-1.329,1.332c-0.716,0-1.296-0.614-1.296-1.332
	L192.551,9.804L192.551,9.804z"/>
<path fill="#2E2F33" d="M219.498,9.94c0-0.75,0.613-1.364,1.33-1.364h6.959c7.506,0,12.691,5.151,12.691,11.872v0.068
	c0,6.721-5.187,11.94-12.691,11.94h-6.959c-0.717,0-1.33-0.614-1.33-1.365V9.94z M227.787,29.966c6.039,0,9.893-4.094,9.893-9.381
	v-0.068c0-5.288-3.854-9.45-9.893-9.45h-5.594v18.899H227.787z"/>
<path fill="#2E2F33" d="M100.198,43.626h-6.143c-0.356,0-0.658-0.301-0.658-0.658c0-0.356,0.301-0.657,0.658-0.657h13.712
	c0.356,0,0.659,0.301,0.659,0.657c0,0.357-0.302,0.658-0.659,0.658h-6.143v17.276c0,0.384-0.33,0.713-0.713,0.713
	c-0.383,0-0.713-0.329-0.713-0.713V43.626z"/>
<path fill="#2E2F33" d="M108.972,60.573l8.2-17.771c0.192-0.411,0.466-0.686,0.96-0.686h0.055c0.494,0,0.768,0.274,0.959,0.686
	l8.172,17.716c0.082,0.166,0.108,0.303,0.108,0.438c0,0.356-0.301,0.658-0.686,0.658c-0.328,0-0.576-0.246-0.714-0.55l-2.248-4.936
	h-11.325l-2.249,4.963c-0.137,0.329-0.356,0.521-0.686,0.521c-0.356,0-0.658-0.273-0.658-0.604
	C108.862,60.902,108.89,60.738,108.972,60.573 M123.178,54.842l-5.046-11.105l-5.074,11.105H123.178z"/>
<path fill="#2E2F33" d="M131.842,43.021c0-0.385,0.328-0.713,0.713-0.713h7.213c2.166,0,3.922,0.631,4.99,1.699
	c0.797,0.795,1.234,1.811,1.234,3.018v0.056c0,2.604-1.699,3.921-3.264,4.553c2.305,0.604,4.334,1.921,4.334,4.579v0.055
	c0,3.209-2.742,5.238-6.886,5.238h-7.622c-0.386,0-0.714-0.329-0.714-0.713L131.842,43.021L131.842,43.021z M139.604,51.167
	c2.879,0,4.935-1.397,4.935-3.949v-0.055c0-2.112-1.726-3.537-4.799-3.537h-6.472v7.541H139.604z M140.232,60.188
	c3.291,0,5.375-1.506,5.375-3.92v-0.056c0-2.356-2.058-3.729-5.84-3.729h-6.5v7.705H140.232z"/>
<path fill="#2E2F33" d="M151.639,42.913c0-0.386,0.33-0.714,0.715-0.714c0.383,0,0.711,0.328,0.711,0.714v17.276h10.726
	c0.354,0,0.655,0.302,0.655,0.658c0,0.355-0.301,0.657-0.655,0.657h-11.437c-0.385,0-0.715-0.329-0.715-0.713V42.913z"/>
<path fill="#2E2F33" d="M168.613,60.793V43.021c0-0.385,0.33-0.713,0.713-0.713h12.396c0.354,0,0.657,0.301,0.657,0.658
	c0,0.355-0.303,0.658-0.657,0.658h-11.685v7.541h10.448c0.355,0,0.658,0.302,0.658,0.659c0,0.354-0.303,0.657-0.658,0.657h-10.448
	v7.705h11.819c0.355,0,0.658,0.304,0.658,0.658c0,0.356-0.303,0.658-0.658,0.658h-12.532
	C168.943,61.506,168.613,61.177,168.613,60.793"/>
<path fill="#2E2F33" d="M192.307,43.626h-6.143c-0.357,0-0.658-0.301-0.658-0.658c0-0.356,0.301-0.657,0.658-0.657h13.711
	c0.357,0,0.658,0.301,0.658,0.657c0,0.357-0.301,0.658-0.658,0.658h-6.143v17.276c0,0.384-0.33,0.713-0.713,0.713
	c-0.386,0-0.713-0.329-0.713-0.713V43.626L192.307,43.626z"/>
<path fill="#2E2F33" d="M202.396,51.962v-0.053c0-5.239,3.867-9.931,9.682-9.931c5.812,0,9.625,4.637,9.625,9.873v0.058
	c0,5.235-3.867,9.926-9.682,9.926C206.209,61.835,202.396,57.2,202.396,51.962 M220.223,51.962v-0.053
	c0-4.746-3.455-8.642-8.201-8.642c-4.742,0-8.145,3.84-8.145,8.584v0.058c0,4.743,3.455,8.637,8.201,8.637
	C216.82,60.546,220.223,56.707,220.223,51.962"/>
<path fill="#2E2F33" d="M226.555,43.021c0-0.385,0.33-0.713,0.713-0.713h6.254c4.224,0,7.131,2.166,7.131,5.867v0.057
	c0,4.031-3.483,6.115-7.487,6.115h-5.183v6.555c0,0.384-0.33,0.713-0.715,0.713c-0.383,0-0.713-0.329-0.713-0.713V43.021
	L226.555,43.021z M233.246,53.032c3.566,0,5.98-1.865,5.98-4.718V48.26c0-3.044-2.359-4.634-5.814-4.634h-5.43v9.406H233.246
	L233.246,53.032z"/>
</svg>
