<?xml version="1.0" encoding="utf-8"?>
<!-- Generator: Adobe Illustrator 15.0.0, SVG Export Plug-In . SVG Version: 6.00 Build 0)  -->
<!DOCTYPE svg PUBLIC "-//W3C//DTD SVG 1.1//EN" "http://www.w3.org/Graphics/SVG/1.1/DTD/svg11.dtd">
<svg version="1.1" id="Layer_1" xmlns="http://www.w3.org/2000/svg" xmlns:xlink="http://www.w3.org/1999/xlink" x="0px" y="0px"
	 width="875.002px" height="587.543px" viewBox="0 0 875.002 587.543" enable-background="new 0 0 875.002 587.543"
	 xml:space="preserve">
<path fill="#EAEAEA" d="M830.625,3.982c21.633,0,39.171,17.538,39.171,39.171v503.014c0,21.634-17.538,39.172-39.171,39.172H41.376
	c-21.633,0-39.171-17.538-39.171-39.172V43.153c0-21.633,17.538-39.171,39.171-39.171H830.625z"/>
<path fill="#D6D6D7" d="M872.001,43.153v503.014c0,22.815-18.561,41.376-41.376,41.376H41.376C18.561,587.543,0,568.982,0,546.167
	V43.153C0,20.339,18.561,1.777,41.376,1.777h789.249C853.44,1.777,872.001,20.339,872.001,43.153L872.001,43.153z M4.411,546.167
	c0,20.383,16.581,36.966,36.965,36.966h789.249c20.384,0,36.968-16.583,36.968-36.966V43.153c0-20.383-16.584-36.965-36.968-36.965
	H41.376c-20.384,0-36.965,16.582-36.965,36.965V546.167L4.411,546.167z"/>
<circle fill="#D6D6D7" cx="43.413" cy="286.09" r="6.169"/>
<circle fill="#D6D6D7" cx="829.542" cy="294.661" r="22.269"/>
<g>
	<path fill="#C1C2C3" d="M838.235,289.623v10.074c0,1.947-1.585,3.533-3.534,3.533h-10.566c-1.946,0-3.533-1.586-3.533-3.533
		v-10.074c0-1.947,1.587-3.532,3.533-3.532h10.566C836.65,286.091,838.235,287.676,838.235,289.623L838.235,289.623z
		 M822.072,299.697c0,1.137,0.925,2.062,2.062,2.062h10.566c1.138,0,2.062-0.926,2.062-2.062v-10.074
		c0-1.136-0.925-2.062-2.062-2.062h-10.566c-1.138,0-2.062,0.927-2.062,2.062V299.697L822.072,299.697z"/>
</g>
<path fill="#D6D6D7" d="M149.95,3.556c-1.346,0-2.439-0.796-2.439-1.778l0,0c0-0.982,1.094-1.777,2.439-1.777h44.67
	c1.345,0,2.436,0.795,2.436,1.777l0,0c0,0.982-1.091,1.778-2.436,1.778H149.95z"/>
<path fill="#D6D6D7" d="M208.95,3.556c-1.346,0-2.439-0.796-2.439-1.778l0,0c0-0.982,1.094-1.777,2.439-1.777h44.67
	c1.345,0,2.436,0.795,2.436,1.777l0,0c0,0.982-1.091,1.778-2.436,1.778H208.95z"/>
<rect x="82.001" y="26.661" width="711" height="536"/>
</svg>
