<?xml version="1.0" encoding="utf-8"?>
<!-- Generator: Adobe Illustrator 15.0.0, SVG Export Plug-In . SVG Version: 6.00 Build 0)  -->
<!DOCTYPE svg PUBLIC "-//W3C//DTD SVG 1.1//EN" "http://www.w3.org/Graphics/SVG/1.1/DTD/svg11.dtd">
<svg version="1.1" id="Layer_1" xmlns="http://www.w3.org/2000/svg" xmlns:xlink="http://www.w3.org/1999/xlink" x="0px" y="0px"
	 width="500px" height="500px" viewBox="0 0 500 500" enable-background="new 0 0 500 500" xml:space="preserve">
<polygon fill="#CCD0D9" points="249.445,113.65 153.08,83.543 39.917,118.897 0.003,500 135.011,464.473 249.445,494.596
	363.884,464.473 498.886,500 458.972,118.897 345.809,83.543 "/>
<polygon fill="#40B29B" points="442.185,132.581 345.814,102.466 249.445,132.581 153.077,102.466 56.708,132.581 20.569,475.896
	135.008,445.781 249.445,475.896 363.884,445.781 478.323,475.896 "/>
<polygon fill="#76DD1B" points="135.008,445.781 20.569,475.896 56.708,132.581 153.077,102.466 "/>
<polygon fill="#73BF2B" points="249.445,475.896 135.008,445.781 153.077,102.466 249.445,132.581 "/>
<polygon fill="#76DD1B" points="363.884,445.781 249.445,475.896 249.445,132.581 345.814,102.466 "/>
<polygon fill="#6FAD2D" points="250.999,358.904 357.861,312.297 357.861,198.835 "/>
<polygon fill="#73BF2B" points="478.323,475.896 363.884,445.781 345.814,102.466 442.185,132.581 "/>
<g>
	<defs>
		<rect id="SVGID_1_" width="498.892" height="500"/>
	</defs>
	<clipPath id="SVGID_2_">
		<use xlink:href="#SVGID_1_"  overflow="visible"/>
	</clipPath>
	<path clip-path="url(#SVGID_2_)" fill="#F1C40F" d="M249.445,0.003c-77.347,0-140.048,62.698-140.048,140.047
		c0,77.348,125.635,220.301,140.048,220.301c14.399,0,140.049-142.954,140.049-220.301C389.494,62.701,326.793,0.003,249.445,0.003
		 M249.445,190.765c-28.989,0-52.483-23.49-52.483-52.479c0-28.983,23.494-52.479,52.483-52.479
		c28.976,0,52.479,23.495,52.479,52.479C301.924,167.275,278.421,190.765,249.445,190.765"/>
	<path clip-path="url(#SVGID_2_)" fill="#ECF0F1" d="M249.445,69.303c-38.097,0-68.989,30.893-68.989,68.983
		c0,38.089,30.893,68.982,68.989,68.982c38.092,0,68.984-30.894,68.984-68.982C318.43,100.196,287.537,69.303,249.445,69.303
		 M249.445,190.765c-28.989,0-52.483-23.49-52.483-52.479c0-28.983,23.494-52.479,52.483-52.479
		c28.976,0,52.479,23.495,52.479,52.479C301.924,167.275,278.421,190.765,249.445,190.765"/>
</g>
</svg>
