<?xml version="1.0" encoding="utf-8"?>
<!-- Generator: Adobe Illustrator 16.0.0, SVG Export Plug-In . SVG Version: 6.00 Build 0)  -->
<!DOCTYPE svg PUBLIC "-//W3C//DTD SVG 1.1//EN" "http://www.w3.org/Graphics/SVG/1.1/DTD/svg11.dtd">
<svg version="1.1" id="Layer_1" xmlns="http://www.w3.org/2000/svg" xmlns:xlink="http://www.w3.org/1999/xlink" x="0px" y="0px"
	 width="22px" height="20px" viewBox="0 0 22 20" enable-background="new 0 0 22 20" xml:space="preserve">
<g>
	<path fill="#AAAAAA" d="M11.013,20.092C5.486,20.092,1,15.595,1,10.04C1,4.499,5.486,0,11.013,0C16.54,0,21.025,4.499,21.025,10.04
		C21.025,15.595,16.54,20.092,11.013,20.092z M14.925,4.108c-1.122-0.757-2.466-1.188-3.912-1.188c-3.912,0-7.093,3.195-7.093,7.119
		c0,1.448,0.431,2.778,1.161,3.899L14.925,4.108z M16.972,6.194l-9.831,9.817c1.122,0.729,2.451,1.16,3.872,1.16
		c3.912,0,7.091-3.194,7.091-7.132C18.104,8.619,17.688,7.302,16.972,6.194z"/>
</g>
</svg>
