<?xml version="1.0" encoding="utf-8"?>
<!-- Generator: Adobe Illustrator 16.0.0, SVG Export Plug-In . SVG Version: 6.00 Build 0)  -->
<!DOCTYPE svg PUBLIC "-//W3C//DTD SVG 1.1//EN" "http://www.w3.org/Graphics/SVG/1.1/DTD/svg11.dtd">
<svg version="1.1" id="Layer_1" xmlns="http://www.w3.org/2000/svg" xmlns:xlink="http://www.w3.org/1999/xlink" x="0px" y="0px"
	 width="22px" height="20px" viewBox="0 0 22 20" enable-background="new 0 0 22 20" xml:space="preserve">
<g>
	<polygon fill="none" points="3.384,18.378 1.504,4.931 3.901,1.66 18.354,1.355 19.779,14.995 17.48,18.378 	"/>
	<path fill="#AAAAAA" d="M17.713,18.814H3.005l-1.958-14l2.631-3.587L18.745,0.91l1.483,14.195L17.713,18.814z M3.763,17.941h13.488
		l2.078-3.062L17.962,1.8L4.126,2.092L1.96,5.045L3.763,17.941z"/>
</g>
<rect x="16.65" y="1.251" transform="matrix(0.9865 0.1635 -0.1635 0.9865 1.7 -2.6725)" fill="#AAAAAA" width="0.872" height="15.482"/>
<rect x="11.274" y="-3.21" transform="matrix(0.3579 0.9337 -0.9337 0.3579 11.1662 -8.4253)" fill="#AAAAAA" width="0.872" height="14.234"/>
<rect x="2.582" y="9.727" transform="matrix(0.3807 0.9247 -0.9247 0.3807 13.4785 0.1991)" fill="#AAAAAA" width="8.016" height="0.871"/>
<rect x="7.918" y="14.685" transform="matrix(0.9509 0.3095 -0.3095 0.9509 5.2676 -2.9614)" fill="#AAAAAA" width="8.1" height="0.873"/>
<rect x="1.347" y="5.257" transform="matrix(0.9191 0.3941 -0.3941 0.9191 2.5094 -0.8333)" fill="#AAAAAA" width="3.873" height="0.872"/>
<rect x="5.315" y="12.855" transform="matrix(0.6898 0.724 -0.724 0.6898 13.4568 0.8377)" fill="#AAAAAA" width="0.871" height="6.537"/>
<rect x="15.349" y="16.94" transform="matrix(0.639 0.7692 -0.7692 0.639 19.3764 -6.5354)" fill="#AAAAAA" width="2.604" height="0.873"/>
</svg>
