<?xml version="1.0" encoding="utf-8"?>
<!-- Generator: Adobe Illustrator 16.0.0, SVG Export Plug-In . SVG Version: 6.00 Build 0)  -->
<!DOCTYPE svg PUBLIC "-//W3C//DTD SVG 1.1//EN" "http://www.w3.org/Graphics/SVG/1.1/DTD/svg11.dtd">
<svg version="1.1" id="Layer_1" xmlns="http://www.w3.org/2000/svg" xmlns:xlink="http://www.w3.org/1999/xlink" x="0px" y="0px"
	 width="22px" height="20px" viewBox="0 0 22 20" enable-background="new 0 0 22 20" xml:space="preserve">
<g>
	<polygon fill="#FDFF15" points="3.384,18.378 1.504,4.931 3.901,1.66 18.354,1.355 19.779,14.995 17.48,18.378 	"/>
	<path fill="#231F20" d="M17.713,18.814H3.005l-1.958-14l2.631-3.587l15.067-0.317l1.483,14.196L17.713,18.814z M3.763,17.941
		h13.488l2.078-3.061L17.962,1.8L4.126,2.092L1.96,5.045L3.763,17.941z"/>
</g>
<rect x="16.649" y="1.251" transform="matrix(-0.9865 -0.1635 0.1635 -0.9865 32.4709 20.6562)" fill="#231F20" width="0.872" height="15.482"/>
<rect x="11.273" y="-3.212" transform="matrix(-0.3582 -0.9336 0.9336 -0.3582 12.2576 16.2373)" fill="#231F20" width="0.872" height="14.235"/>
<rect x="2.582" y="9.726" transform="matrix(-0.3807 -0.9247 0.9247 -0.3807 -0.297 20.1244)" fill="#231F20" width="8.016" height="0.871"/>
<rect x="7.917" y="14.685" transform="matrix(-0.9509 -0.3095 0.3095 -0.9509 18.667 33.2045)" fill="#231F20" width="8.1" height="0.873"/>
<rect x="1.347" y="5.257" transform="matrix(-0.9191 -0.3941 0.3941 -0.9191 4.058 12.2196)" fill="#231F20" width="3.873" height="0.872"/>
<rect x="5.314" y="12.854" transform="matrix(-0.6892 -0.7245 0.7245 -0.6892 -1.9668 31.4006)" fill="#231F20" width="0.872" height="6.536"/>
<rect x="15.348" y="16.939" transform="matrix(-0.639 -0.7692 0.7692 -0.639 13.9255 41.287)" fill="#231F20" width="2.604" height="0.873"/>
</svg>
