<?xml version="1.0" encoding="utf-8"?>
<!-- Generator: Adobe Illustrator 16.0.0, SVG Export Plug-In . SVG Version: 6.00 Build 0)  -->
<!DOCTYPE svg PUBLIC "-//W3C//DTD SVG 1.1//EN" "http://www.w3.org/Graphics/SVG/1.1/DTD/svg11.dtd">
<svg version="1.1" id="Layer_1" xmlns="http://www.w3.org/2000/svg" xmlns:xlink="http://www.w3.org/1999/xlink" x="0px" y="0px"
	 width="22px" height="20px" viewBox="0 0 22 20" enable-background="new 0 0 22 20" xml:space="preserve">
<g>
	<polygon fill="#0066DD" points="8.21,18.457 3.695,15.177 1.971,9.868 3.695,4.562 8.21,1.282 13.789,1.282 18.305,4.562
		20.027,9.868 18.305,15.177 13.789,18.457 	"/>
	<path fill="#231F20" d="M13.932,18.893H8.069l-4.745-3.447L1.513,9.868l1.811-5.576l4.745-3.446h5.863l4.744,3.446l1.811,5.576
		l-1.811,5.577L13.932,18.893z M8.351,18.021h5.297l4.285-3.113l1.637-5.039L17.934,4.83l-4.285-3.112H8.351L4.067,4.83L2.43,9.868
		l1.637,5.039L8.351,18.021z"/>
</g>
<g>
	<polygon fill="#0066DD" points="7.116,7.004 12.566,5.231 15.936,9.869 12.566,14.506 7.116,12.734 	"/>
	<path fill="#231F20" d="M12.732,15.02L6.68,13.052V6.688l6.052-1.969l3.742,5.15L12.732,15.02z M7.553,12.418l4.847,1.575
		l2.996-4.124L12.4,5.744L7.553,7.32V12.418z"/>
</g>
<rect x="12.685" y="1.206" transform="matrix(-0.9628 -0.2704 0.2704 -0.9628 24.8737 9.9418)" fill="#231F20" width="0.872" height="4.103"/>
<rect x="3.202" y="5.346" transform="matrix(-0.8226 -0.5686 0.5686 -0.8226 6.4628 13.5803)" fill="#231F20" width="4.295" height="0.871"/>
<rect x="4.913" y="11.846" transform="matrix(-0.5953 -0.8035 0.8035 -0.5953 -2.7512 26.7062)" fill="#231F20" width="0.873" height="4.399"/>
<rect x="11.07" y="16.044" transform="matrix(-0.2708 -0.9626 0.9626 -0.2708 0.8101 33.5746)" fill="#231F20" width="4.104" height="0.872"/>
<rect x="15.936" y="9.434" fill="#231F20" width="3.98" height="0.872"/>
</svg>
