<?xml version="1.0" encoding="utf-8"?>
<!-- Generator: Adobe Illustrator 16.0.0, SVG Export Plug-In . SVG Version: 6.00 Build 0)  -->
<!DOCTYPE svg PUBLIC "-//W3C//DTD SVG 1.1//EN" "http://www.w3.org/Graphics/SVG/1.1/DTD/svg11.dtd">
<svg version="1.1" id="Layer_1" xmlns="http://www.w3.org/2000/svg" xmlns:xlink="http://www.w3.org/1999/xlink" x="0px" y="0px"
	 width="22px" height="20px" viewBox="0 0 22 20" enable-background="new 0 0 22 20" xml:space="preserve">
<g>
	<g>
		<polygon fill="none" points="6.087,18.512 1.173,10 6.087,1.489 15.914,1.489 20.828,10 15.914,18.512 		"/>
		<path fill="#AAAAAA" d="M16.135,18.893H5.866L0.733,10l5.133-8.893h10.269L21.268,10L16.135,18.893z M6.308,18.131h9.385
			L20.389,10l-4.695-8.13H6.308L1.614,10L6.308,18.131z"/>
	</g>
	
		<rect x="8.163" y="-2.767" transform="matrix(0.4996 0.8662 -0.8662 0.4996 9.2506 -4.5273)" fill="#AAAAAA" width="0.763" height="17.023"/>
	
		<rect x="0.034" y="13.875" transform="matrix(0.866 0.5 -0.5 0.866 8.2727 -2.3624)" fill="#AAAAAA" width="17.022" height="0.763"/>
	<rect x="15.533" y="1.489" fill="#AAAAAA" width="0.764" height="17.021"/>
	
		<rect x="4.855" y="3.237" transform="matrix(0.4981 0.8671 -0.8671 0.4981 6.808 -4.5241)" fill="#AAAAAA" width="4.914" height="0.763"/>
	<rect x="15.914" y="9.619" fill="#AAAAAA" width="4.914" height="0.763"/>
	
		<rect x="6.935" y="13.928" transform="matrix(0.8651 0.5016 -0.5016 0.8651 9.2065 -1.4598)" fill="#AAAAAA" width="0.763" height="4.914"/>
	
		<rect x="4.288" y="9.621" transform="matrix(8.037845e-04 1 -1 8.037845e-04 18.5354 1.4536)" fill="#AAAAAA" width="8.505" height="0.762"/>
	
		<rect x="11.848" y="7.872" transform="matrix(0.5003 0.8659 -0.8659 0.5003 16.6117 -4.5281)" fill="#AAAAAA" width="0.761" height="8.512"/>
	
		<rect x="7.968" y="7.493" transform="matrix(0.8665 0.4992 -0.4992 0.8665 5.5628 -5.0516)" fill="#AAAAAA" width="8.516" height="0.763"/>
</g>
</svg>
