<?xml version="1.0" encoding="utf-8"?>
<!-- Generator: Adobe Illustrator 16.0.0, SVG Export Plug-In . SVG Version: 6.00 Build 0)  -->
<!DOCTYPE svg PUBLIC "-//W3C//DTD SVG 1.1//EN" "http://www.w3.org/Graphics/SVG/1.1/DTD/svg11.dtd">
<svg version="1.1" id="Layer_1" xmlns="http://www.w3.org/2000/svg" xmlns:xlink="http://www.w3.org/1999/xlink" x="0px" y="0px"
	 width="22px" height="20px" viewBox="0 0 22 20" enable-background="new 0 0 22 20" xml:space="preserve">
<g>
	<g>
		<polygon fill="#F58B24" points="6.087,18.512 1.173,10 6.087,1.489 15.914,1.489 20.828,10 15.914,18.512 		"/>
		<path fill="#231F20" d="M16.135,18.893H5.866L0.733,10l5.133-8.893h10.269L21.268,10L16.135,18.893z M6.308,18.131h9.385
			L20.389,10l-4.695-8.13H6.308L1.614,10L6.308,18.131z"/>
	</g>
	
		<rect x="8.163" y="-2.767" transform="matrix(-0.4992 -0.8665 0.8665 -0.4992 7.8322 16.0152)" fill="#231F20" width="0.763" height="17.022"/>
	
		<rect x="0.033" y="13.874" transform="matrix(-0.866 -0.5 0.5 -0.866 8.8158 30.8734)" fill="#231F20" width="17.022" height="0.763"/>
	<rect x="15.533" y="1.489" fill="#231F20" width="0.764" height="17.022"/>
	
		<rect x="4.855" y="3.238" transform="matrix(-0.4982 -0.8671 0.8671 -0.4982 7.8164 11.7623)" fill="#231F20" width="4.914" height="0.763"/>
	<rect x="15.914" y="9.619" fill="#231F20" width="4.914" height="0.763"/>
	
		<rect x="6.935" y="13.927" transform="matrix(-0.8656 -0.5007 0.5007 -0.8656 5.4464 34.2302)" fill="#231F20" width="0.763" height="4.915"/>
	
		<rect x="4.287" y="9.621" transform="matrix(-8.037526e-04 -1 1 -8.037526e-04 -1.455 18.5495)" fill="#231F20" width="8.505" height="0.762"/>
	
		<rect x="11.847" y="7.871" transform="matrix(-0.4997 -0.8662 0.8662 -0.4997 7.835 28.7796)" fill="#231F20" width="0.762" height="8.512"/>
	
		<rect x="7.968" y="7.494" transform="matrix(-0.8665 -0.4992 0.4992 -0.8665 18.8879 20.8015)" fill="#231F20" width="8.516" height="0.763"/>
</g>
</svg>
