<?xml version="1.0" encoding="utf-8"?>
<!-- Generator: Adobe Illustrator 16.0.0, SVG Export Plug-In . SVG Version: 6.00 Build 0)  -->
<!DOCTYPE svg PUBLIC "-//W3C//DTD SVG 1.1//EN" "http://www.w3.org/Graphics/SVG/1.1/DTD/svg11.dtd">
<svg version="1.1" id="Layer_1" xmlns="http://www.w3.org/2000/svg" xmlns:xlink="http://www.w3.org/1999/xlink" x="0px" y="0px"
	 width="22px" height="20px" viewBox="0 0 22 20" enable-background="new 0 0 22 20" xml:space="preserve">
<g>
	<polygon fill="#BF3000" points="9.057,19.098 1.936,15.174 1.936,3.001 12.652,1.004 20.064,3.983 20.064,16.482 	"/>
	<path fill="#231F20" d="M8.993,19.561l-7.494-4.129V2.64l11.199-2.088l7.803,3.136v13.138L8.993,19.561z M2.371,14.918l6.748,3.717
		l10.511-2.498V4.278l-7.021-2.821L2.371,3.364V14.918z"/>
</g>
<rect x="8.62" y="6.272" fill="#231F20" width="0.872" height="12.826"/>
<rect x="1.578" y="4.201" transform="matrix(-0.9088 -0.4173 0.4173 -0.9088 8.5552 11.1448)" fill="#231F20" width="7.836" height="0.872"/>
<rect x="14.126" y="-0.494" transform="matrix(-0.2017 -0.9794 0.9794 -0.2017 12.4768 20.4239)" fill="#231F20" width="0.871" height="11.243"/>
</svg>
