<?xml version="1.0" encoding="utf-8"?>
<!-- Generator: Adobe Illustrator 16.0.0, SVG Export Plug-In . SVG Version: 6.00 Build 0)  -->
<!DOCTYPE svg PUBLIC "-//W3C//DTD SVG 1.1//EN" "http://www.w3.org/Graphics/SVG/1.1/DTD/svg11.dtd">
<svg version="1.1" id="Layer_1" xmlns="http://www.w3.org/2000/svg" xmlns:xlink="http://www.w3.org/1999/xlink" x="0px" y="0px"
	 width="22px" height="20px" viewBox="0 0 22 20" enable-background="new 0 0 22 20" xml:space="preserve">
<g>
	<g>
		<polygon fill="none" points="2.956,18.424 4.149,3.331 18.74,1.602 18.068,17.496 		"/>
		<path fill="#AAAAAA" d="M2.481,18.891L3.743,2.94l15.454-1.831l-0.711,16.797L2.481,18.891z M4.556,3.721L3.431,17.959
			l14.219-0.875l0.633-14.99L4.556,3.721z"/>
	</g>
	
		<rect x="5.787" y="13.66" transform="matrix(0.8577 0.5141 -0.5141 0.8577 9.0102 -4.3679)" fill="#AAAAAA" width="13.222" height="0.872"/>
	
		<rect x="1.534" y="6.58" transform="matrix(0.3301 0.944 -0.944 0.3301 10.2649 -0.4326)" fill="#AAAAAA" width="7.806" height="0.872"/>
	
		<rect x="12.296" y="-1.386" transform="matrix(0.6041 0.7969 -0.7969 0.6041 9.9413 -7.7122)" fill="#AAAAAA" width="0.874" height="15.07"/>
	
		<rect x="4.406" y="10.261" transform="matrix(0.8993 0.4373 -0.4373 0.8993 6.8551 -0.6509)" fill="#AAAAAA" width="0.871" height="8.598"/>
</g>
</svg>
