<?xml version="1.0" encoding="utf-8"?>
<!-- Generator: Adobe Illustrator 15.1.0, SVG Export Plug-In . SVG Version: 6.00 Build 0)  -->
<!DOCTYPE svg PUBLIC "-//W3C//DTD SVG 1.1//EN" "http://www.w3.org/Graphics/SVG/1.1/DTD/svg11.dtd">
<svg version="1.1" id="Layer_2" xmlns="http://www.w3.org/2000/svg" xmlns:xlink="http://www.w3.org/1999/xlink" x="0px" y="0px"
	 width="504px" height="504px" viewBox="0 0 504 504" enable-background="new 0 0 504 504" xml:space="preserve">
<g>
	<g>
		<g>
			<path fill="#42B5E8" d="M197.454,342.657c-2.262,0.968-4.103,2.937-5.976,4.502c-2.354,1.967-4.94,3.653-7.569,5.229
				c-5.971,3.576-11.328,5.6-18.227,5.933c-3.542,0.172-5.397,3.017-4.904,6.345c0.792,5.337,6.445,8.064,11.39,7.621
				c5.754-0.518,10.913-3.391,15.356-6.898c5.453-4.306,16.095-14.295,11.935-22.209
				C199.054,342.408,198.159,342.355,197.454,342.657L197.454,342.657z"/>
		</g>
	</g>
	<g>
		<path fill="#42B5E8" d="M208.402,198.798c4.833-19.546,4.013-55.728-13.628-61.097c-21.103-6.422-33.924,11.645-49.909,19.099
			c5.669-15.825,22.712-29.204,41.727-31.791c35.914-4.881,48.019,29.724,46.128,64.583c19.461-5.035,49.729-7.568,52.975,15.78
			c3.494,25.135-19.481,51.289-6.014,74.685c4.916,8.536,16.541,15.59,25.34,22.502c28.097,22.068,51.632,41.83,79.446,64.856
			c-1.146,4.571-12.146,18.313-14.61,22.28c-25.489-18.771-48.058-39.668-75.502-56.35c20.229,21.262,48.231,40.146,71.525,60.361
			c-1.789,3.608-21.76,21.649-22.411,21.456c-2.457-0.731-19.487-13.181-23.024-15.944c-22.159-17.312-40.375-32.162-62.514-50.449
			c-14.397-11.896-27.599-20.82-43.771-31.623c-16.979-11.34-46.999-32.502-69.906-18.476
			c-16.309,9.989-20.125,30.032-23.503,54.521c-8.345-24.106-1.97-49.78,12.19-63.871c17.097-17.012,50.709-17.285,72.539-4.778
			c-0.93-2.884-1.781-7.694-2.039-12.999c-0.056-1.727-40.623-10.521-57.475-20.211c-45.505,30.547-82.863,68.729-83.536,141.311
			c-16.372-11.479-7.769-42.979-1.293-60.195c13.969-37.148,40.396-69.209,68.339-90.297
			c-38.927-19.31-55.972-79.593-45.333-140.393c2.509-14.343,5.879-30.895,14.235-40.62c-2.734,31.97-5.874,78.782,6.073,107.979
			c4.928-45.726,40.324-83.163,55.649-122.274c3.746-9.557,8.323-24.532,1.504-33.731c-5.465-7.373-18.5-8.02-29.264-3.591
			c16.654-19.144,46.663-8.592,44.773,22.524c-0.782,12.872-7.057,26.032-12.401,37.32c-14.53,30.696-40.529,68.9-42.541,106.953
			c-0.91,17.19,9.958,32.945,20.122,41.456c1.488,1.244,9.33,7.332,13.191,7.347c3.307,0.012,9.394-4.614,13.381-6.91
			C181.705,210.817,194.829,204.538,208.402,198.798z M265.719,208.608c-2.115-11.497-26.697-4.316-35.024-1.462
			c-0.379,14.075-1.249,27.694-0.564,42.768c3.32,1.227,13.8,7.287,19.119,10.396C249.293,240.265,268.301,222.642,265.719,208.608z
			 M173.209,232.318c12.031,2.886,22.97,6.943,28.797,8.015c-0.011-9.006,1.562-16.994,3.056-24.588
			C193.399,220.29,182.304,225.367,173.209,232.318z M254.8,311.95c-6.408-8.104-5.119-24.433-17.677-25.986
			C239.43,298.004,247.302,307.68,254.8,311.95z"/>
		<path fill="#42B5E8" d="M19.188,156.316c-0.278,51.252,28.51,88.068,79.796,84.225c-2.285,9.647-14.271,12.109-24.84,13.107
			c-33.842,3.201-61.791-25.735-63.472-60.139C10.005,179.902,11.515,164.635,19.188,156.316z"/>
		<path fill="#42B5E8" d="M431.93,341.217c-4.086,11.842-10.413,31.572-17.237,47.842c-0.943,2.244-21.854,27.479-28.66,35.257
			c-3.525,4.025-6.623,8.729-9.33,11.96c-0.983,1.174-40.982,27.282-42.521,27.275c-2.971-0.006-19.621-18.93-20.096-22.173
			c-0.211-1.443,13.896-9.313,16.443-10.742c6.9-3.87,12.818-6.523,17.821-9.644c7.478-4.654,12.818-12.331,18.834-18.75
			c9.146-9.752,19.804-19.871,24.928-32.266c2.804-6.785,15.271-42.639,14.751-42.853
			C416.137,330.848,423.784,336.298,431.93,341.217z"/>
		<path fill="#42B5E8" d="M431.722,415.067c-3.485,3.624-19.271,23.763-29.975,34.646c-6.358-3.481-12.341-7.364-17.243-12.396
			c9.002-14.362,20.94-25.971,31.124-39.225C421.656,403.042,426.322,409.446,431.722,415.067z"/>
		<path fill="#42B5E8" d="M452.446,435.126c-14.369,5.56-22.464,17.007-28.155,30.704c-2.76-2.492-17.095-9.748-17.221-11.752
			c-0.266-4.117,23.404-30.071,28.026-34.586C441.794,424.088,447.57,429.082,452.446,435.126z"/>
		<path fill="#42B5E8" d="M461.653,439.361c20.836-1.727,42.353,19.02,33.166,44.271c-10.753,29.552-63.688,28.192-63.872-12.188
			C430.867,454.07,443.225,440.89,461.653,439.361z M456.245,452.493c19.354-1.688,25.22,11.03,29.328,25.612
			C495.629,461.462,471.899,440.162,456.245,452.493z"/>
	</g>
</g>
</svg>
